<svg width="289" height="69" viewBox="0 0 289 69" fill="none" xmlns="http://www.w3.org/2000/svg">
<g clip-path="url(#clip0_3308_14090)">
<path d="M0 0H53.8866V41.2459C53.8866 56.1256 41.8236 68.2556 26.9427 68.2556C12.063 68.2556 0 56.1256 0 41.2459V0ZM26.9427 63.8775C39.3433 63.8775 49.5755 53.6453 49.5755 41.2459V4.31107H26.9427V63.8775ZM9.01096 25.1242V25.5057H12.4688V25.1242L11.8631 24.945C11.5779 24.8694 11.3914 24.728 11.3012 24.5184C11.2122 24.3088 11.1671 24.0467 11.1671 23.7322V13.9205L19.8258 25.5057H21.0825V12.6188C21.0825 12.3189 21.1129 12.0642 21.1727 11.8545C21.2482 11.6303 21.4274 11.473 21.7114 11.3828L22.2733 11.2268V10.7771H18.9275V11.2268L19.6016 11.3828C19.9002 11.4584 20.0952 11.6083 20.1854 11.8326C20.2902 12.0569 20.3426 12.3189 20.3426 12.6188V20.9484L12.7833 10.7771H8.94393V11.2268L9.34859 11.5181C9.52776 11.6522 9.67036 11.7729 9.77518 11.8777C9.88 11.9825 9.97751 12.1093 10.0665 12.2592C10.1713 12.3933 10.292 12.6029 10.426 12.8869V23.7554C10.426 24.054 10.3663 24.3088 10.2469 24.5184C10.1421 24.728 9.94704 24.8694 9.66305 24.945L9.01096 25.1242ZM11.5852 51.7975V51.5062L11.0915 51.349C10.7625 51.2295 10.5747 51.065 10.5297 50.8553C10.4858 50.6457 10.515 50.3763 10.6198 50.0472L11.5852 47.1951H16.5471L17.4905 50.0923C17.5953 50.4202 17.61 50.6981 17.5356 50.9224C17.4759 51.1466 17.2809 51.3112 16.9518 51.416L16.5703 51.5281V51.7975H22.2733V51.5281L21.9357 51.4392C21.6066 51.3343 21.3677 51.199 21.2178 51.0345C21.0678 50.8553 20.9338 50.6006 20.8131 50.2715L16.3009 37.0019H14.4373L9.90194 50.1813C9.79712 50.4958 9.65452 50.7432 9.47535 50.9224C9.3108 51.1015 9.07069 51.2368 8.75622 51.327L8.15045 51.5062V51.7975H11.5852ZM14.1448 39.7857L16.3448 46.5443H11.8107L14.1448 39.7857ZM26.9427 29.8167H7.90303V32.6908H26.9427V29.8167ZM36.0146 24.9901C36.3144 24.8853 36.5095 24.75 36.5984 24.5854C36.7033 24.4063 36.7557 24.1588 36.7557 23.8444V12.5054C36.7557 12.1922 36.7033 11.9521 36.5984 11.7875C36.5095 11.6083 36.3144 11.4657 36.0146 11.3609L35.5661 11.2268V10.7771H40.9534V11.2268L40.5048 11.3609C40.2196 11.4657 40.0258 11.6083 39.921 11.7875C39.8162 11.9521 39.7638 12.1922 39.7638 12.5054V23.8444C39.7638 24.1588 39.8162 24.4063 39.921 24.5854C40.0258 24.75 40.2196 24.8853 40.5048 24.9901L40.9534 25.1242V25.5057H35.5661V25.1242L36.0146 24.9901ZM35.6099 51.0686C36.2389 50.9346 36.5533 50.5677 36.5533 49.9692V40.6962C36.5533 39.648 36.5448 38.5998 36.5302 37.5528H34.7567C34.2777 37.5528 33.9255 37.6796 33.7012 37.9343C33.477 38.1878 33.2527 38.5474 33.0272 39.0118L32.2423 40.673H31.6133L31.7706 37.0019H44.8379L44.9049 40.673H44.276L43.491 39.0118C43.2668 38.5474 43.0413 38.1878 42.817 37.9343C42.5927 37.6796 42.2405 37.5528 41.7627 37.5528H39.9661V49.9692C39.9661 50.5823 40.2806 50.9492 40.9083 51.0686L41.8297 51.2478V51.7195H34.7117V51.2478L35.6099 51.0686ZM45.9824 29.8167H26.9427V32.6908H45.9824V29.8167Z" fill="#991B1B"/>
<path d="M67.0621 29.6791H64.6061V15.4332H67.0816L73.767 25.5277V15.4332H76.2217V29.6791H73.767L67.0621 19.5846V29.6791ZM80.701 29.6791H77.9915L81.3056 24.9634L77.9915 20.0514H80.7595L82.884 23.3253L84.9304 20.0514H87.5997L84.3259 24.9244L87.5022 29.6791H84.7744L82.728 26.5028L80.701 29.6791ZM92.6713 29.6791H90.2934V22.0394H88.4431V20.0514H90.2934V17.0506H92.6713V20.0514H94.5423V22.0394H92.6713V29.6791ZM99.3336 29.6791L95.0847 15.4332H97.6772L99.9381 22.956C100.151 23.736 100.366 24.5344 100.58 25.7825C100.814 24.5149 101.029 23.7738 101.283 22.956L103.524 15.4332H106.271L108.474 22.956C108.708 23.7555 108.922 24.5734 109.156 25.7825C109.429 24.4564 109.623 23.697 109.838 22.9755L112.138 15.4332H114.672L110.345 29.6791H107.928L104.888 19.3116L101.788 29.6791H99.3336ZM117.613 29.9327C115.566 29.9327 114.319 28.7443 114.319 26.9318C114.319 25.1584 115.605 24.0468 117.886 23.8713L120.77 23.6568V23.4435C120.77 22.1369 119.991 21.6103 118.783 21.6103C117.379 21.6103 116.599 22.1954 116.599 23.2095H114.573C114.573 21.124 116.288 19.7601 118.899 19.7601C121.491 19.7601 123.089 21.163 123.089 23.8323V29.6791H121.004L120.828 28.2567C120.42 29.2513 119.113 29.9327 117.613 29.9327ZM118.393 28.1397C119.854 28.1397 120.789 27.2634 120.789 25.7812V25.2754L118.783 25.4314C117.301 25.5667 116.736 26.0543 116.736 26.8343C116.736 27.7107 117.32 28.1397 118.393 28.1397ZM127.773 29.6791L123.953 20.0514H126.486L128.162 24.4759C128.571 25.6252 128.903 26.6198 129.02 27.1464C129.156 26.5418 129.506 25.5277 129.917 24.4759L131.671 20.0514H134.126L130.111 29.6791H127.773ZM139.324 29.9327C136.46 29.9327 134.451 27.8472 134.451 24.8659C134.451 21.8444 136.421 19.7601 139.246 19.7601C142.13 19.7601 143.963 21.6896 143.963 24.6904V25.4107L136.712 25.4314C136.888 27.1256 137.785 27.9837 139.363 27.9837C140.668 27.9837 141.527 27.4779 141.8 26.5613H144.001C143.592 28.6663 141.837 29.9327 139.324 29.9327ZM139.266 21.7091C137.863 21.7091 137.005 22.4684 136.771 23.9103H141.605C141.605 22.5854 140.688 21.7091 139.266 21.7091ZM150.553 24.8464C150.553 21.8444 152.717 19.7796 155.698 19.7796C158.679 19.7796 160.843 21.8444 160.843 24.8464C160.843 27.8472 158.679 29.9132 155.698 29.9132C152.717 29.9132 150.553 27.8472 150.553 24.8464ZM152.93 24.8464C152.93 26.6003 154.061 27.7887 155.698 27.7887C157.335 27.7887 158.465 26.6003 158.465 24.8464C158.465 23.0925 157.335 21.9029 155.698 21.9029C154.061 21.9029 152.93 23.0925 152.93 24.8464ZM161.734 20.0514H163.118V18.8826C163.118 16.2706 164.502 15.1797 166.587 15.1797C166.958 15.1797 167.406 15.1992 167.815 15.2772V17.3041H166.977C165.768 17.3041 165.477 17.927 165.477 18.8826V20.0514H167.777V22.0394H165.477V29.6791H163.118V22.0394H161.734V20.0514ZM177.392 15.4332V29.6791H174.897V15.4332H177.392ZM182.577 29.6791H180.199V20.0514H182.402L182.596 21.2995C183.2 20.3245 184.369 19.7601 185.676 19.7601C188.093 19.7601 189.34 21.2605 189.34 23.7543V29.6791H186.962V24.3198C186.962 22.7024 186.163 21.9224 184.935 21.9224C183.473 21.9224 182.577 22.9365 182.577 24.4954V29.6791ZM194.053 29.6791H191.676V20.0514H193.877L194.072 21.2995C194.677 20.3245 195.846 19.7601 197.152 19.7601C199.568 19.7601 200.815 21.2605 200.815 23.7543V29.6791H198.438V24.3198C198.438 22.7024 197.639 21.9224 196.411 21.9224C194.95 21.9224 194.053 22.9365 194.053 24.4954V29.6791ZM202.586 24.8464C202.586 21.8444 204.75 19.7796 207.732 19.7796C210.713 19.7796 212.877 21.8444 212.877 24.8464C212.877 27.8472 210.713 29.9132 207.732 29.9132C204.75 29.9132 202.586 27.8472 202.586 24.8464ZM204.964 24.8464C204.964 26.6003 206.095 27.7887 207.732 27.7887C209.369 27.7887 210.499 26.6003 210.499 24.8464C210.499 23.0925 209.369 21.9029 207.732 21.9029C206.095 21.9029 204.964 23.0925 204.964 24.8464ZM217.014 29.6791L213.195 20.0514H215.728L217.404 24.4759C217.813 25.6252 218.145 26.6198 218.262 27.1464C218.398 26.5418 218.748 25.5277 219.158 24.4759L220.911 20.0514H223.367L219.353 29.6791H217.014ZM227.123 29.9327C225.076 29.9327 223.829 28.7443 223.829 26.9318C223.829 25.1584 225.115 24.0468 227.396 23.8713L230.281 23.6568V23.4435C230.281 22.1369 229.501 21.6103 228.293 21.6103C226.889 21.6103 226.11 22.1954 226.11 23.2095H224.083C224.083 21.124 225.798 19.7601 228.41 19.7601C231.001 19.7601 232.6 21.163 232.6 23.8323V29.6791H230.515L230.339 28.2567C229.93 29.2513 228.624 29.9327 227.123 29.9327ZM227.903 28.1397C229.364 28.1397 230.3 27.2634 230.3 25.7812V25.2754L228.293 25.4314C226.812 25.5667 226.246 26.0543 226.246 26.8343C226.246 27.7107 226.83 28.1397 227.903 28.1397ZM238.077 29.6791H235.699V22.0394H233.847V20.0514H235.699V17.0506H238.077V20.0514H239.947V22.0394H238.077V29.6791ZM242.614 18.122C241.795 18.122 241.153 17.4797 241.153 16.6801C241.153 15.8805 241.795 15.2577 242.614 15.2577C243.393 15.2577 244.037 15.8805 244.037 16.6801C244.037 17.4797 243.393 18.122 242.614 18.122ZM241.426 29.6791V20.0514H243.803V29.6791H241.426ZM245.694 24.8464C245.694 21.8444 247.858 19.7796 250.839 19.7796C253.822 19.7796 255.985 21.8444 255.985 24.8464C255.985 27.8472 253.822 29.9132 250.839 29.9132C247.858 29.9132 245.694 27.8472 245.694 24.8464ZM248.071 24.8464C248.071 26.6003 249.202 27.7887 250.839 27.7887C252.476 27.7887 253.607 26.6003 253.607 24.8464C253.607 23.0925 252.476 21.9029 250.839 21.9029C249.202 21.9029 248.071 23.0925 248.071 24.8464ZM260.246 29.6791H257.869V20.0514H260.072L260.266 21.2995C260.87 20.3245 262.039 19.7601 263.346 19.7601C265.762 19.7601 267.01 21.2605 267.01 23.7543V29.6791H264.632V24.3198C264.632 22.7024 263.832 21.9224 262.605 21.9224C261.143 21.9224 260.246 22.9365 260.246 24.4954V29.6791ZM275.787 18.122C274.969 18.122 274.325 17.4797 274.325 16.6801C274.325 15.8805 274.969 15.2577 275.787 15.2577C276.567 15.2577 277.209 15.8805 277.209 16.6801C277.209 17.4797 276.567 18.122 275.787 18.122ZM274.598 29.6791V20.0514H276.976V29.6791H274.598ZM281.81 29.6791H279.432V20.0514H281.635L281.83 21.2995C282.434 20.3245 283.603 19.7601 284.908 19.7601C287.325 19.7601 288.572 21.2605 288.572 23.7543V29.6791H286.194V24.3198C286.194 22.7024 285.396 21.9224 284.169 21.9224C282.706 21.9224 281.81 22.9365 281.81 24.4954V29.6791ZM65.8347 53.3504H63.2422L68.387 39.1045H70.9404L76.0852 53.3504H73.4549L72.3043 50.0571H66.9841L65.8347 53.3504ZM69.3425 43.3522L67.7251 47.9521H71.584L69.9459 43.3522C69.8289 42.9829 69.6936 42.5539 69.6546 42.2613C69.5961 42.5344 69.479 42.9622 69.3425 43.3522ZM81.0398 53.604C78.2536 53.604 76.5179 51.5575 76.5179 48.575C76.5179 45.5742 78.2718 43.4302 81.1764 43.4302C82.5207 43.4302 83.7103 43.9958 84.3137 44.9501V38.851H86.6722V53.3504H84.4892L84.3332 51.85C83.7493 52.9604 82.5012 53.604 81.0398 53.604ZM81.5664 51.421C83.2228 51.421 84.2942 50.2314 84.2942 48.4982C84.2942 46.7625 83.2228 45.5547 81.5664 45.5547C79.91 45.5547 78.8959 46.7833 78.8959 48.4982C78.8959 50.2131 79.91 51.421 81.5664 51.421ZM91.8779 53.3504L88.058 43.7227H90.592L92.2679 48.1472C92.6774 49.2965 93.009 50.2899 93.126 50.8164C93.2625 50.2131 93.6123 49.199 94.0218 48.1472L95.7757 43.7227H98.2317L94.2168 53.3504H91.8779ZM101.987 53.604C99.9418 53.604 98.6937 52.4156 98.6937 50.6019C98.6937 48.8297 99.9808 47.7181 102.26 47.5426L105.145 47.3281V47.1148C105.145 45.8082 104.365 45.2816 103.157 45.2816C101.754 45.2816 100.974 45.8667 100.974 46.8796H98.9472C98.9472 44.7953 100.662 43.4302 103.274 43.4302C105.865 43.4302 107.463 44.8331 107.463 47.5036V53.3504H105.379L105.204 51.928C104.794 52.9214 103.487 53.604 101.987 53.604ZM102.767 51.811C104.228 51.811 105.165 50.9335 105.165 49.4525V48.9455L103.157 49.1015C101.675 49.238 101.111 49.7256 101.111 50.5044C101.111 51.382 101.696 51.811 102.767 51.811ZM112.177 53.3504H109.8V43.7227H112.002L112.197 44.9708C112.801 43.9958 113.971 43.4302 115.276 43.4302C117.692 43.4302 118.94 44.9306 118.94 47.4256V53.3504H116.562V47.9911C116.562 46.3737 115.762 45.5937 114.535 45.5937C113.074 45.5937 112.177 46.6077 112.177 48.1667V53.3504ZM120.711 48.5165C120.711 45.5352 122.679 43.4302 125.524 43.4302C128.156 43.4302 129.949 44.8916 130.201 47.2111H127.824C127.551 46.1202 126.753 45.5547 125.622 45.5547C124.102 45.5547 123.088 46.704 123.088 48.5165C123.088 50.3301 124.024 51.46 125.544 51.46C126.732 51.46 127.571 50.8749 127.824 49.8231H130.222C129.929 52.0645 128.058 53.604 125.544 53.604C122.621 53.604 120.711 51.577 120.711 48.5165ZM136.298 53.604C133.433 53.604 131.426 51.5185 131.426 48.5372C131.426 45.5157 133.394 43.4302 136.22 43.4302C139.105 43.4302 140.935 45.3596 140.935 48.3605V49.082L133.687 49.1015C133.861 50.7969 134.758 51.655 136.337 51.655C137.642 51.655 138.5 51.148 138.773 50.2314H140.976C140.566 52.3363 138.812 53.604 136.298 53.604ZM136.239 45.3792C134.836 45.3792 133.978 46.1397 133.745 47.5816H138.578C138.578 46.2567 137.663 45.3792 136.239 45.3792ZM146.796 53.604C144.008 53.604 142.274 51.5575 142.274 48.575C142.274 45.5742 144.028 43.4302 146.932 43.4302C148.277 43.4302 149.465 43.9958 150.069 44.9501V38.851H152.428V53.3504H150.245L150.089 51.85C149.504 52.9604 148.257 53.604 146.796 53.604ZM147.321 51.421C148.979 51.421 150.05 50.2314 150.05 48.4982C150.05 46.7625 148.979 45.5547 147.321 45.5547C145.665 45.5547 144.652 46.7833 144.652 48.4982C144.652 50.2131 145.665 51.421 147.321 51.421ZM159.262 41.4033V39.1045H170.098V41.4033H165.927V53.3504H163.433V41.4033H159.262ZM174.323 53.604C171.459 53.604 169.452 51.5185 169.452 48.5372C169.452 45.5157 171.42 43.4302 174.247 43.4302C177.13 43.4302 178.962 45.3596 178.962 48.3605V49.082L171.713 49.1015C171.888 50.7969 172.784 51.655 174.364 51.655C175.669 51.655 176.526 51.148 176.799 50.2314H179.001C178.592 52.3363 176.838 53.604 174.323 53.604ZM174.266 45.3792C172.862 45.3792 172.005 46.1397 171.771 47.5816H176.604C176.604 46.2567 175.688 45.3792 174.266 45.3792ZM180.301 48.5165C180.301 45.5352 182.268 43.4302 185.114 43.4302C187.745 43.4302 189.537 44.8916 189.791 47.2111H187.414C187.141 46.1202 186.341 45.5547 185.211 45.5547C183.691 45.5547 182.677 46.704 182.677 48.5165C182.677 50.3301 183.613 51.46 185.133 51.46C186.322 51.46 187.16 50.8749 187.414 49.8231H189.81C189.519 52.0645 187.648 53.604 185.133 53.604C182.209 53.604 180.301 51.577 180.301 48.5165ZM193.958 53.3504H191.581V38.851H193.977V44.9708C194.582 44.0348 195.712 43.4302 197.096 43.4302C199.473 43.4302 200.72 44.9306 200.72 47.4256V53.3504H198.343V47.9911C198.343 46.3737 197.544 45.5937 196.336 45.5937C194.835 45.5937 193.958 46.6455 193.958 48.0887V53.3504ZM205.435 53.3504H203.057V43.7227H205.259L205.454 44.9708C206.057 43.9958 207.227 43.4302 208.533 43.4302C210.95 43.4302 212.197 44.9306 212.197 47.4256V53.3504H209.819V47.9911C209.819 46.3737 209.02 45.5937 207.793 45.5937C206.33 45.5937 205.435 46.6077 205.435 48.1667V53.3504ZM213.968 48.5165C213.968 45.5157 216.131 43.4497 219.114 43.4497C222.095 43.4497 224.258 45.5157 224.258 48.5165C224.258 51.5185 222.095 53.5845 219.114 53.5845C216.131 53.5845 213.968 51.5185 213.968 48.5165ZM216.346 48.5165C216.346 50.2704 217.476 51.46 219.114 51.46C220.749 51.46 221.88 50.2704 221.88 48.5165C221.88 46.7625 220.749 45.5742 219.114 45.5742C217.476 45.5742 216.346 46.7625 216.346 48.5165ZM228.54 53.3504H226.182V38.851H228.54V53.3504ZM230.468 48.5165C230.468 45.5157 232.632 43.4497 235.613 43.4497C238.596 43.4497 240.759 45.5157 240.759 48.5165C240.759 51.5185 238.596 53.5845 235.613 53.5845C232.632 53.5845 230.468 51.5185 230.468 48.5165ZM232.846 48.5165C232.846 50.2704 233.976 51.46 235.613 51.46C237.25 51.46 238.381 50.2704 238.381 48.5165C238.381 46.7625 237.25 45.5742 235.613 45.5742C233.976 45.5742 232.846 46.7625 232.846 48.5165ZM242.098 48.3227C242.098 45.5157 243.929 43.4107 246.678 43.4107C248.12 43.4107 249.25 44.0153 249.815 45.0476L249.952 43.7227H252.154V52.8629C252.154 56.0782 250.225 58.0857 247.107 58.0857C244.339 58.0857 242.449 56.5073 242.156 53.9355H244.534C244.69 55.1824 245.644 55.9234 247.107 55.9234C248.743 55.9234 249.796 54.8898 249.796 53.2919V51.694C249.191 52.5899 248.003 53.1554 246.619 53.1554C243.89 53.1554 242.098 51.109 242.098 48.3227ZM244.495 48.2642C244.495 49.8816 245.527 51.0895 247.086 51.0895C248.724 51.0895 249.737 49.9401 249.737 48.2642C249.737 46.6273 248.743 45.4962 247.086 45.4962C245.508 45.4962 244.495 46.6858 244.495 48.2642ZM255.804 41.7933C254.984 41.7933 254.342 41.151 254.342 40.3514C254.342 39.5518 254.984 38.929 255.804 38.929C256.584 38.929 257.226 39.5518 257.226 40.3514C257.226 41.151 256.584 41.7933 255.804 41.7933ZM254.614 53.3504V43.7227H256.992V53.3504H254.614ZM263.755 53.604C260.891 53.604 258.884 51.5185 258.884 48.5372C258.884 45.5157 260.852 43.4302 263.677 43.4302C266.562 43.4302 268.394 45.3596 268.394 48.3605V49.082L261.145 49.1015C261.32 50.7969 262.216 51.655 263.796 51.655C265.1 51.655 265.958 51.148 266.231 50.2314H268.433C268.024 52.3363 266.27 53.604 263.755 53.604ZM263.697 45.3792C262.294 45.3792 261.437 46.1397 261.203 47.5816H266.036C266.036 46.2567 265.12 45.3792 263.697 45.3792ZM269.557 50.4276H271.817C271.836 51.265 272.46 51.7915 273.551 51.7915C274.663 51.7915 275.266 51.343 275.266 50.6421C275.266 50.1546 275.014 49.8036 274.156 49.6086L272.421 49.199C270.687 48.809 269.848 47.9911 269.848 46.4517C269.848 44.5613 271.447 43.4302 273.668 43.4302C275.832 43.4302 277.293 44.6783 277.313 46.5492H275.052C275.033 45.7302 274.487 45.2036 273.571 45.2036C272.636 45.2036 272.09 45.6327 272.09 46.3542C272.09 46.9003 272.519 47.2501 273.337 47.4451L275.072 47.8546C276.69 48.2252 277.508 48.965 277.508 50.4459C277.508 52.3961 275.851 53.604 273.474 53.604C271.077 53.604 269.557 52.3168 269.557 50.4276Z" fill="#991B1B"/>
</g>
<defs>
<clipPath id="clip0_3308_14090">
<rect width="288.868" height="68.2556" fill="white"/>
</clipPath>
</defs>
</svg>
